<?xml version="1.0" encoding="UTF-8" standalone="no"?>
<!-- Created with Inkscape (http://www.inkscape.org/) -->

<svg
   width="86.573021mm"
   height="82.866844mm"
   viewBox="0 0 86.573021 82.866844"
   version="1.1"
   id="svg5"
   xml:space="preserve"
   sodipodi:docname="rocket-ship.svg"
   inkscape:version="1.2.2 (732a01da63, 2022-12-09)"
   xmlns:inkscape="http://www.inkscape.org/namespaces/inkscape"
   xmlns:sodipodi="http://sodipodi.sourceforge.net/DTD/sodipodi-0.dtd"
   xmlns="http://www.w3.org/2000/svg"
   xmlns:svg="http://www.w3.org/2000/svg"><sodipodi:namedview
     id="namedview7"
     pagecolor="#000000"
     bordercolor="#999999"
     borderopacity="1"
     inkscape:showpageshadow="0"
     inkscape:pageopacity="0"
     inkscape:pagecheckerboard="0"
     inkscape:deskcolor="#d1d1d1"
     inkscape:document-units="mm"
     showgrid="false"
     inkscape:zoom="1.4627679"
     inkscape:cx="14.014527"
     inkscape:cy="69.730819"
     inkscape:window-width="1920"
     inkscape:window-height="1017"
     inkscape:window-x="1912"
     inkscape:window-y="815"
     inkscape:window-maximized="1"
     inkscape:current-layer="layer1" /><defs
     id="defs2" /><g
     inkscape:label="Ebene 1"
     inkscape:groupmode="layer"
     id="layer1"
     transform="translate(-53.290192,-65.88279)"><rect
       style="fill:#232a2f;fill-opacity:1;stroke:none;stroke-width:3.353;stroke-linecap:round;stroke-linejoin:round;stroke-miterlimit:4.4;stroke-dasharray:none;stroke-opacity:1;paint-order:stroke fill markers"
       id="rect8555"
       width="86.573021"
       height="82.866844"
       x="53.290192"
       y="65.88279"
       ry="0" /><g
       id="g4851"><path
         style="fill:none;stroke:#ffffff;stroke-width:3;stroke-linecap:round;stroke-linejoin:round;stroke-miterlimit:4.4;stroke-dasharray:none;stroke-opacity:1;paint-order:stroke fill markers"
         d="m 123.57792,80.59916 c -0.72316,3.645443 -1.35945,9.374342 -4.04196,15.769582 M 83.311677,108.17503 c -1.172478,2.07703 -2.3379,4.32117 -3.493006,6.74682 m 4.526431,4.32986 10.952569,-11.1544 m -15.479,6.82454 4.526431,4.32986 4.758937,4.55227 c 2.293047,-1.17013 6.052594,-3.44726 6.052594,-3.44726 v 0 L 83.311681,108.17503 C 91.413961,93.821958 99.853238,87.449072 107.55443,84.303073 m 16.02349,-3.703913 c -4.85506,0.33805 -10.07738,1.274879 -16.02349,3.703913 l 11.98153,12.065669 c -2.41231,5.751078 -5.712,11.081768 -12.98509,16.879998 -2.87213,2.2897 -7.504433,4.56537 -11.394237,7.10798"
         id="path2468"
         sodipodi:nodetypes="cccccccccsccccccsc" /><path
         style="fill:none;stroke:#ffffff;stroke-width:3;stroke-linecap:round;stroke-linejoin:round;stroke-miterlimit:4.4;stroke-dasharray:none;stroke-opacity:1;paint-order:stroke fill markers"
         d="m 105.78347,114.20799 0.246,9.47174 -8.505377,8.56933 -2.007958,-11.43647"
         id="path4787" /><path
         style="fill:none;stroke:#ffffff;stroke-width:3;stroke-linecap:round;stroke-linejoin:round;stroke-miterlimit:4.4;stroke-dasharray:none;stroke-opacity:1;paint-order:stroke fill markers"
         d="m 83.311679,108.17503 -12.19903,-2.53753 8.50538,-8.497109 10.847528,0.388152"
         id="path4789" /><ellipse
         style="fill:none;stroke:#ffffff;stroke-width:3;stroke-linecap:round;stroke-linejoin:round;stroke-miterlimit:4.4;stroke-dasharray:none;stroke-opacity:1;paint-order:stroke fill markers"
         id="path4843"
         cx="104.1782"
         cy="99.114601"
         rx="4.9009604"
         ry="4.7962666" /></g><path
       style="fill:none;stroke:#3d84c5;stroke-width:3;stroke-linecap:round;stroke-linejoin:round;stroke-miterlimit:4.4;stroke-dasharray:none;stroke-opacity:1;paint-order:stroke fill markers"
       d="m 82.757601,121.36839 c 0,0 -2.316679,-2.85636 -5.391613,-0.77626 -3.074938,2.0801 -7.687339,13.38501 -7.687339,13.38501 0,0 11.311604,-4.31854 13.385011,-7.32558 2.073407,-3.00704 -0.306059,-5.28317 -0.306059,-5.28317 z"
       id="path4845" /></g></svg>
